<?xml version="1.0"?>
<svg version="1.1" xmlns="http://www.w3.org/2000/svg" width="250" height="50" style=""><path fill="#ffffff" d="M15,18.57080078125q0-0.2255859375,0.314208984375-0.346435546875t0.410888671875-0.120849609375l0.59619140625-0.0966796875q0.59619140625-0.0966796875,1.20849609375-0.169189453125t1.1923828125-0.136962890625q2.04638671875-0.2578125,4.0927734375-0.507568359375t4.125-0.249755859375q0.1611328125,0,0.443115234375,0.01611328125t0.56396484375,0.088623046875t0.4833984375,0.201416015625t0.201416015625,0.3544921875q0,0.1611328125-0.153076171875,0.281982421875t-0.362548828125,0.185302734375t-0.427001953125,0.08056640625t-0.346435546875,0.01611328125l-0.281982421875,0t-0.281982421875-0.064453125q-0.85400390625,0-1.683837890625,0.08056640625t-1.683837890625,0.14501953125q0.2255859375,0.2578125,0.24169921875,0.72509765625t0.0322265625,0.8056640625q0,5.7041015625,0.08056640625,11.34375t0.14501953125,11.39208984375l0,0.0322265625q-0.53173828125,0.46728515625-0.910400390625,0.59619140625t-0.765380859375,0.12890625q-0.37060546875,0-0.749267578125-0.136962890625t-0.910400390625-0.588134765625l0-0.0322265625l0.12890625-12.64892578125q0-1.2568359375-0.0322265625-2.771484375t-0.0322265625-3.069580078125t0.04833984375-3.005126953125t0.2578125-2.52978515625q-0.95068359375,0.0966796875-2.01416015625,0.2900390625q-0.91845703125,0.1611328125-1.75634765625,0.1611328125l-0.2900390625,0q-0.064453125,0-0.378662109375,0.01611328125t-0.64453125-0.01611328125t-0.59619140625-0.12890625t-0.265869140625-0.322265625z M30.930717773438,17.12060546875q0-0.322265625,0.49951171875-0.459228515625t0.82177734375-0.136962890625q0.37060546875,0,0.813720703125,0.0966796875t0.539794921875,0.49951171875q0.46728515625,1.88525390625,0.717041015625,3.843017578125t0.378662109375,3.939697265625t0.20947265625,3.939697265625t0.17724609375,3.875244140625q0.43505859375-1.91748046875,0.894287109375-3.810791015625t1.200439453125-3.778564453125l0-1.2890625q0-0.82177734375,0.572021484375-1.184326171875t1.538818359375-0.362548828125q0.0966796875,0,0.443115234375,0.04833984375t0.346435546875,0.322265625q-0.064453125,0.193359375-0.153076171875,0.37060546875t-0.088623046875,0.38671875q0,2.44921875,0.580078125,5.019287109375t1.14404296875,5.003173828125q0.322265625-2.07861328125,0.7412109375-4.14111328125t0.8701171875-4.10888671875q0.59619140625-2.7392578125,0.910400390625-4.552001953125t0.59619140625-2.8681640625t0.6123046875-1.49853515625t0.926513671875-0.443115234375q0.37060546875-0.0322265625,0.69287109375,0.12890625t0.2578125,0.53173828125q-1.16015625,5.607421875-2.167236328125,11.2470703125t-2.054443359375,11.279296875q0,0.322265625,0.11279296875,0.75732421875t0.11279296875,0.7734375q0,0.193359375-0.17724609375,0.322265625t-0.427001953125,0.217529296875t-0.5478515625,0.120849609375t-0.523681640625,0.0322265625q-0.49951171875,0-1.04736328125-0.153076171875t-0.708984375-0.878173828125q-0.56396484375-2.513671875-1.039306640625-5.051513671875t-0.878173828125-5.115966796875q-0.12890625,0.59619140625-0.24169921875,1.20849609375t-0.20947265625,1.24072265625q-0.46728515625,2.7392578125-1.03125,5.478515625t-0.56396484375,5.54296875q0,0.69287109375-0.2900390625,0.894287109375t-0.98291015625,0.201416015625q-0.53173828125,0-0.90234375-0.17724609375q-0.2900390625-0.1611328125-0.5478515625-0.2900390625q-0.2255859375-0.12890625-0.410888671875-0.298095703125t-0.185302734375-0.330322265625q-0.2578125-3.49658203125-0.362548828125-6.94482421875t-0.233642578125-6.94482421875q-0.12890625-3.14208984375-0.378662109375-6.276123046875t-0.555908203125-6.227783203125z M50.503037109375,38.4384765625q0-0.56396484375,0.38671875-0.717041015625t0.837890625-0.153076171875q0.78955078125,0,1.33740234375,0.708984375t1.039306640625,1.554931640625t0.974853515625,1.554931640625t1.14404296875,0.708984375q0.49951171875,0,0.910400390625-0.249755859375t0.708984375-0.62841796875t0.459228515625-0.85400390625t0.1611328125-0.942626953125q0-1.224609375-0.491455078125-2.52978515625t-1.2568359375-2.69091796875t-1.619384765625-2.8359375t-1.611328125-2.94873046875t-1.2568359375-3.053466796875t-0.49951171875-3.134033203125q0-2.36865234375,1.41796875-3.673828125t3.73828125-1.30517578125q0.78955078125,0,1.59521484375,0.2255859375t1.482421875,0.6767578125t1.103759765625,1.11181640625t0.427001953125,1.546875q0,0.2900390625-0.427001953125,0.378662109375t-0.620361328125,0.088623046875q-0.2900390625,0-0.62841796875-0.072509765625t-0.43505859375-0.394775390625t-0.27392578125-0.7412109375t-0.443115234375-0.781494140625t-0.62841796875-0.62841796875t-0.797607421875-0.265869140625q-0.72509765625,0-1.232666015625,0.298095703125t-0.82177734375,0.797607421875t-0.46728515625,1.119873046875t-0.153076171875,1.281005859375q0,1.546875,0.53173828125,3.117919921875t1.3212890625,3.1259765625t1.716064453125,3.069580078125t1.716064453125,2.94873046875t1.3212890625,2.8037109375t0.53173828125,2.59423828125q0,1.095703125-0.515625,1.85302734375t-1.30517578125,1.232666015625t-1.748291015625,0.69287109375t-1.877197265625,0.217529296875q-0.98291015625,0-2.01416015625-0.394775390625t-1.85302734375-1.087646484375t-1.353515625-1.619384765625t-0.53173828125-2.006103515625z"/><path fill="#bab8ba" d="M69.016762695313,21.29833984375q0-0.1298828125,0.180908203125-0.199462890625t0.236572265625-0.069580078125l0.34326171875-0.0556640625q0.34326171875-0.0556640625,0.69580078125-0.097412109375t0.6865234375-0.078857421875q1.17822265625-0.1484375,2.3564453125-0.292236328125t2.375-0.143798828125q0.0927734375,0,0.255126953125,0.00927734375t0.32470703125,0.051025390625t0.2783203125,0.115966796875t0.115966796875,0.2041015625q0,0.0927734375-0.088134765625,0.162353515625t-0.208740234375,0.106689453125t-0.245849609375,0.04638671875t-0.199462890625,0.00927734375l-0.162353515625,0t-0.162353515625-0.037109375q-0.49169921875,0-0.969482421875,0.04638671875t-0.969482421875,0.08349609375q0.1298828125,0.1484375,0.13916015625,0.41748046875t0.0185546875,0.4638671875q0,3.2841796875,0.04638671875,6.53125t0.08349609375,6.55908203125l0,0.0185546875q-0.30615234375,0.26904296875-0.524169921875,0.34326171875t-0.440673828125,0.07421875q-0.21337890625,0-0.431396484375-0.078857421875t-0.524169921875-0.338623046875l0-0.0185546875l0.07421875-7.28271484375q0-0.7236328125-0.0185546875-1.595703125t-0.0185546875-1.767333984375t0.02783203125-1.730224609375t0.1484375-1.45654296875q-0.54736328125,0.0556640625-1.15966796875,0.1669921875q-0.52880859375,0.0927734375-1.01123046875,0.0927734375l-0.1669921875,0q-0.037109375,0-0.218017578125,0.00927734375t-0.37109375-0.00927734375t-0.34326171875-0.07421875t-0.153076171875-0.185546875z M77.808623046875,27.58837890625q0-0.07421875,0.088134765625-0.134521484375t0.199462890625-0.088134765625t0.227294921875-0.037109375t0.171630859375-0.00927734375q0.41748046875,0,0.71435546875,0.37109375t0.514892578125,0.950927734375t0.37109375,1.2802734375t0.292236328125,1.396240234375t0.273681640625,1.275634765625t0.301513671875,0.895263671875q0.28759765625-0.56591796875,0.524169921875-1.36376953125t0.43603515625-1.6513671875t0.3525390625-1.683837890625t0.245849609375-1.451904296875q0.037109375-0.1669921875,0.23193359375-0.208740234375t0.32470703125-0.041748046875q0.21337890625,0,0.37109375,0.060302734375t0.15771484375,0.264404296875q0,0.34326171875-0.08349609375,0.932373046875t-0.227294921875,1.322021484375t-0.333984375,1.5029296875t-0.408203125,1.461181640625t-0.45458984375,1.224609375t-0.468505859375,0.756103515625q-0.111328125,0.1298828125-0.347900390625,0.180908203125t-0.394287109375,0.051025390625q-0.54736328125,0-0.9091796875-0.28759765625l0,0.0185546875q-0.56591796875-0.52880859375-0.8349609375-1.28955078125t-0.3896484375-1.58642578125t-0.218017578125-1.64208984375t-0.329345703125-1.484375q-0.037109375-0.07421875-0.0927734375-0.218017578125t-0.1298828125-0.28759765625t-0.125244140625-0.273681640625t-0.051025390625-0.2041015625z M84.939838867188,31.2158203125q0-0.52880859375,0.134521484375-1.090087890625t0.4267578125-1.01123046875t0.737548828125-0.73291015625t1.076171875-0.282958984375q0.47314453125,0,0.997314453125,0.162353515625t0.960205078125,0.4638671875t0.709716796875,0.737548828125t0.273681640625,0.97412109375q0,0.6494140625-0.236572265625,1.23388671875t-0.663330078125,1.043701171875t-0.997314453125,0.7236328125t-1.238525390625,0.264404296875q-0.54736328125,0-0.95556640625-0.199462890625t-0.681884765625-0.533447265625t-0.408203125-0.78857421875t-0.134521484375-0.96484375z M86.303608398438,31.197265625q0,0.1669921875,0.051025390625,0.49169921875t0.153076171875,0.635498046875t0.264404296875,0.5380859375t0.394287109375,0.208740234375q0.49169921875-0.0556640625,0.811767578125-0.320068359375t0.51953125-0.644775390625t0.2783203125-0.82568359375t0.078857421875-0.84423828125q0-0.51025390625-0.199462890625-0.853515625t-0.654052734375-0.556640625q0,0.0185546875,0.0185546875,0.0185546875t0.0185546875-0.0185546875l-0.23193359375-0.0556640625q-0.0927734375-0.037109375-0.227294921875-0.08349609375t-0.264404296875-0.2041015625q-0.36181640625,0.1298828125-0.561279296875,0.333984375t-0.301513671875,0.496337890625t-0.125244140625,0.700439453125t-0.023193359375,0.9833984375z M91.969003906251,28.44189453125q0-0.38037109375,0.134521484375-0.64013671875t0.570556640625-0.259765625q0.1669921875,0,0.41748046875,0.051025390625t0.28759765625,0.255126953125q0.0927734375,0.54736328125,0.10205078125,1.1875t0.06494140625,1.2060546875q0.21337890625-0.41748046875,0.54736328125-0.89990234375t0.7607421875-0.890625t0.927734375-0.67724609375t1.0205078125-0.26904296875q0.037109375,0,0.13916015625,0.02783203125t0.190185546875,0.078857421875t0.106689453125,0.115966796875t-0.10205078125,0.12060546875q-0.037109375,0.111328125-0.15771484375,0.134521484375t-0.21337890625,0.023193359375q-0.0556640625,0-0.17626953125-0.04638671875q-0.6865234375,0.36181640625-1.1689453125,0.9833984375t-0.78857421875,1.377685546875t-0.4453125,1.595703125t-0.13916015625,1.637451171875q0,0.39892578125-0.180908203125,0.482421875t-0.579833984375,0.08349609375q-0.21337890625,0-0.449951171875-0.04638671875t-0.329345703125-0.296875q-0.1669921875-0.52880859375-0.273681640625-1.21533203125t-0.162353515625-1.414794921875t-0.078857421875-1.433349609375t-0.023193359375-1.27099609375z M98.562133789062,28.33984375q0-0.6494140625,0.060302734375-1.6884765625t0.143798828125-2.14306640625t0.208740234375-2.092041015625t0.273681640625-1.516845703125q0.0556640625-0.23193359375,0.264404296875-0.2783203125t0.422119140625-0.04638671875q0.28759765625,0,0.496337890625,0.10205078125t0.208740234375,0.4453125q0,1.6884765625-0.208740234375,3.381591796875t-0.227294921875,3.381591796875q0.28759765625-0.43603515625,0.7421875-0.654052734375t0.96484375-0.218017578125q0.705078125,0,1.21533203125,0.28759765625t0.82568359375,0.7421875t0.468505859375,1.052978515625t0.153076171875,1.219970703125q0,0.34326171875-0.069580078125,0.858154296875t-0.208740234375,1.08544921875t-0.3525390625,1.1318359375t-0.505615234375,1.006591796875t-0.672607421875,0.718994140625t-0.8349609375,0.273681640625q-0.0927734375,0-0.245849609375-0.02783203125t-0.30615234375-0.08349609375t-0.255126953125-0.143798828125t-0.10205078125-0.218017578125q0-0.1484375,0.180908203125-0.208740234375t0.292236328125-0.060302734375q0.41748046875-0.185546875,0.7421875-0.774658203125t0.542724609375-1.294189453125t0.329345703125-1.396240234375t0.111328125-1.127197265625q0-0.25048828125-0.07421875-0.66796875t-0.227294921875-0.82568359375t-0.41748046875-0.705078125t-0.626220703125-0.296875q-0.43603515625,0-0.69580078125,0.449951171875t-0.408203125,1.04833984375t-0.199462890625,1.23388671875t-0.051025390625,0.997314453125q0,0.23193359375,0.078857421875,0.459228515625t0.180908203125,0.45458984375t0.180908203125,0.4638671875t0.078857421875,0.468505859375q0,0.111328125-0.097412109375,0.185546875t-0.227294921875,0.12060546875t-0.273681640625,0.060302734375t-0.218017578125,0.013916015625q-0.52880859375,0-0.73291015625-0.25048828125t-0.3525390625-0.705078125q-0.32470703125-1.02978515625-0.449951171875-2.092041015625t-0.125244140625-2.129150390625z M106.47264648437,31.03955078125q0-0.630859375,0.171630859375-1.21533203125t0.514892578125-1.043701171875t0.858154296875-0.73291015625t1.192138671875-0.273681640625q0.41748046875,0,0.923095703125,0.125244140625t0.950927734375,0.37109375t0.7421875,0.626220703125t0.296875,0.8720703125q0,0.23193359375-0.078857421875,0.3525390625t-0.320068359375,0.12060546875l-0.10205078125-0.0185546875q0.26904296875,0.7236328125,0.4638671875,1.484375t0.38037109375,1.521484375q0.07421875,0.1484375,0.111328125,0.264404296875t0.037109375,0.227294921875q0,0.1484375-0.08349609375,0.245849609375t-0.218017578125,0.143798828125t-0.2783203125,0.06494140625t-0.255126953125,0.0185546875q-0.39892578125,0-0.598388671875-0.13916015625t-0.28759765625-0.38037109375t-0.106689453125-0.542724609375t-0.07421875-0.607666015625q-0.111328125,0.36181640625-0.292236328125,0.705078125t-0.4267578125,0.616943359375t-0.579833984375,0.43603515625t-0.75146484375,0.162353515625q-0.6123046875,0-1.02978515625-0.3525390625t-0.672607421875-0.867431640625t-0.37109375-1.099365234375t-0.115966796875-1.08544921875z M107.79002929687,30.90966796875q0,0.34326171875,0.04638671875,0.7236328125t0.153076171875,0.75146484375t0.273681640625,0.700439453125t0.41748046875,0.579833984375q0.45458984375-0.49169921875,0.672607421875-1.19677734375t0.3896484375-1.359130859375t0.3896484375-1.12255859375t0.672607421875-0.468505859375q0.28759765625,0,0.482421875,0.10205078125q-0.0927734375-0.23193359375-0.30615234375-0.449951171875t-0.477783203125-0.39892578125t-0.54736328125-0.296875t-0.533447265625-0.115966796875q-0.07421875,0-0.171630859375,0.023193359375t-0.153076171875,0.004638671875q-0.38037109375,0.111328125-0.626220703125,0.385009765625t-0.39892578125,0.644775390625t-0.218017578125,0.7607421875t-0.06494140625,0.73291015625z M118.12814453125,20.46337890625q0-0.185546875,0.28759765625-0.264404296875t0.47314453125-0.078857421875q0.21337890625,0,0.468505859375,0.0556640625t0.310791015625,0.28759765625q0.26904296875,1.08544921875,0.412841796875,2.212646484375t0.218017578125,2.268310546875t0.12060546875,2.268310546875t0.10205078125,2.231201171875q0.25048828125-1.10400390625,0.514892578125-2.194091796875t0.691162109375-2.175537109375l0-0.7421875q0-0.47314453125,0.329345703125-0.681884765625t0.885986328125-0.208740234375q0.0556640625,0,0.255126953125,0.02783203125t0.199462890625,0.185546875q-0.037109375,0.111328125-0.088134765625,0.21337890625t-0.051025390625,0.22265625q0,1.41015625,0.333984375,2.889892578125t0.65869140625,2.880615234375q0.185546875-1.19677734375,0.4267578125-2.38427734375t0.5009765625-2.36572265625q0.34326171875-1.5771484375,0.524169921875-2.620849609375t0.34326171875-1.6513671875t0.3525390625-0.86279296875t0.533447265625-0.255126953125q0.21337890625-0.0185546875,0.39892578125,0.07421875t0.1484375,0.30615234375q-0.66796875,3.228515625-1.247802734375,6.4755859375t-1.182861328125,6.494140625q0,0.185546875,0.06494140625,0.43603515625t0.06494140625,0.4453125q0,0.111328125-0.10205078125,0.185546875t-0.245849609375,0.125244140625t-0.3154296875,0.069580078125t-0.301513671875,0.0185546875q-0.28759765625,0-0.60302734375-0.088134765625t-0.408203125-0.505615234375q-0.32470703125-1.447265625-0.598388671875-2.908447265625t-0.505615234375-2.945556640625q-0.07421875,0.34326171875-0.13916015625,0.69580078125t-0.12060546875,0.71435546875q-0.26904296875,1.5771484375-0.59375,3.154296875t-0.32470703125,3.19140625q0,0.39892578125-0.1669921875,0.514892578125t-0.56591796875,0.115966796875q-0.30615234375,0-0.51953125-0.10205078125q-0.1669921875-0.0927734375-0.3154296875-0.1669921875q-0.1298828125-0.07421875-0.236572265625-0.171630859375t-0.106689453125-0.190185546875q-0.1484375-2.01318359375-0.208740234375-3.99853515625t-0.134521484375-3.99853515625q-0.07421875-1.80908203125-0.218017578125-3.613525390625t-0.320068359375-3.585693359375z M129.39705566406,31.419921875q0-0.6494140625,0.143798828125-1.53076171875t0.487060546875-1.669921875t0.904541015625-1.340576171875t1.414794921875-0.552001953125q0.7978515625,0,1.19677734375,0.459228515625t0.39892578125,1.238525390625q0,0.51025390625-0.190185546875,1.117919921875t-0.542724609375,1.150390625t-0.8349609375,0.904541015625t-1.076171875,0.36181640625l-0.2412109375-0.0185546875q0,0.25048828125,0.07421875,0.672607421875t0.218017578125,0.839599609375t0.37109375,0.73291015625t0.552001953125,0.3154296875q0.47314453125,0,0.9091796875-0.38037109375t0.82568359375-0.84423828125t0.7236328125-0.84423828125t0.6123046875-0.38037109375q0.1484375,0,0.30615234375,0.04638671875t0.17626953125,0.259765625q0,0.1298828125-0.069580078125,0.21337890625t-0.125244140625,0.185546875q-0.28759765625,0.49169921875-0.626220703125,0.93701171875t-0.765380859375,0.80712890625t-0.932373046875,0.570556640625t-1.117919921875,0.208740234375q-0.7978515625,0-1.32666015625-0.282958984375t-0.853515625-0.7607421875t-0.468505859375-1.10400390625t-0.143798828125-1.312744140625z M131.05770019531,30.71484375l0.259765625,0.23193359375q0.185546875,0.1669921875,0.37109375,0.07421875t0.333984375-0.338623046875t0.273681640625-0.607666015625t0.22265625-0.7421875t0.143798828125-0.7421875t0.04638671875-0.60302734375l0-0.3154296875t-0.02783203125-0.333984375t-0.097412109375-0.264404296875t-0.218017578125-0.134521484375q-0.04638671875-0.00927734375-0.08349609375-0.00927734375q-0.3154296875,0-0.5380859375,0.39892578125q-0.2412109375,0.4453125-0.3896484375,1.080810546875t-0.21337890625,1.303466796875t-0.08349609375,1.001953125z M137.14985351562,28.33984375q0-0.6494140625,0.060302734375-1.6884765625t0.143798828125-2.14306640625t0.208740234375-2.092041015625t0.273681640625-1.516845703125q0.0556640625-0.23193359375,0.264404296875-0.2783203125t0.422119140625-0.04638671875q0.28759765625,0,0.496337890625,0.10205078125t0.208740234375,0.4453125q0,1.6884765625-0.208740234375,3.381591796875t-0.227294921875,3.381591796875q0.28759765625-0.43603515625,0.7421875-0.654052734375t0.96484375-0.218017578125q0.705078125,0,1.21533203125,0.28759765625t0.82568359375,0.7421875t0.468505859375,1.052978515625t0.153076171875,1.219970703125q0,0.34326171875-0.069580078125,0.858154296875t-0.208740234375,1.08544921875t-0.3525390625,1.1318359375t-0.505615234375,1.006591796875t-0.672607421875,0.718994140625t-0.8349609375,0.273681640625q-0.0927734375,0-0.245849609375-0.02783203125t-0.30615234375-0.08349609375t-0.255126953125-0.143798828125t-0.10205078125-0.218017578125q0-0.1484375,0.180908203125-0.208740234375t0.292236328125-0.060302734375q0.41748046875-0.185546875,0.7421875-0.774658203125t0.542724609375-1.294189453125t0.329345703125-1.396240234375t0.111328125-1.127197265625q0-0.25048828125-0.07421875-0.66796875t-0.227294921875-0.82568359375t-0.41748046875-0.705078125t-0.626220703125-0.296875q-0.43603515625,0-0.69580078125,0.449951171875t-0.408203125,1.04833984375t-0.199462890625,1.23388671875t-0.051025390625,0.997314453125q0,0.23193359375,0.078857421875,0.459228515625t0.180908203125,0.45458984375t0.180908203125,0.4638671875t0.078857421875,0.468505859375q0,0.111328125-0.097412109375,0.185546875t-0.227294921875,0.12060546875t-0.273681640625,0.060302734375t-0.218017578125,0.013916015625q-0.52880859375,0-0.73291015625-0.25048828125t-0.3525390625-0.705078125q-0.32470703125-1.02978515625-0.449951171875-2.092041015625t-0.125244140625-2.129150390625z M144.87481933594,31.2158203125q0-0.52880859375,0.134521484375-1.090087890625t0.4267578125-1.01123046875t0.737548828125-0.73291015625t1.076171875-0.282958984375q0.47314453125,0,0.997314453125,0.162353515625t0.960205078125,0.4638671875t0.709716796875,0.737548828125t0.273681640625,0.97412109375q0,0.6494140625-0.236572265625,1.23388671875t-0.663330078125,1.043701171875t-0.997314453125,0.7236328125t-1.238525390625,0.264404296875q-0.54736328125,0-0.95556640625-0.199462890625t-0.681884765625-0.533447265625t-0.408203125-0.78857421875t-0.134521484375-0.96484375z M146.23858886719,31.197265625q0,0.1669921875,0.051025390625,0.49169921875t0.153076171875,0.635498046875t0.264404296875,0.5380859375t0.394287109375,0.208740234375q0.49169921875-0.0556640625,0.811767578125-0.320068359375t0.51953125-0.644775390625t0.2783203125-0.82568359375t0.078857421875-0.84423828125q0-0.51025390625-0.199462890625-0.853515625t-0.654052734375-0.556640625q0,0.0185546875,0.0185546875,0.0185546875t0.0185546875-0.0185546875l-0.23193359375-0.0556640625q-0.0927734375-0.037109375-0.227294921875-0.08349609375t-0.264404296875-0.2041015625q-0.36181640625,0.1298828125-0.561279296875,0.333984375t-0.301513671875,0.496337890625t-0.125244140625,0.700439453125t-0.023193359375,0.9833984375z M151.52361328125,27.58837890625q0-0.07421875,0.088134765625-0.134521484375t0.199462890625-0.088134765625t0.227294921875-0.037109375t0.171630859375-0.00927734375q0.41748046875,0,0.71435546875,0.37109375t0.514892578125,0.950927734375t0.37109375,1.2802734375t0.292236328125,1.396240234375t0.273681640625,1.275634765625t0.301513671875,0.895263671875q0.28759765625-0.56591796875,0.524169921875-1.36376953125t0.43603515625-1.6513671875t0.3525390625-1.683837890625t0.245849609375-1.451904296875q0.037109375-0.1669921875,0.23193359375-0.208740234375t0.32470703125-0.041748046875q0.21337890625,0,0.37109375,0.060302734375t0.15771484375,0.264404296875q0,0.34326171875-0.08349609375,0.932373046875t-0.227294921875,1.322021484375t-0.333984375,1.5029296875t-0.408203125,1.461181640625t-0.45458984375,1.224609375t-0.468505859375,0.756103515625q-0.111328125,0.1298828125-0.347900390625,0.180908203125t-0.394287109375,0.051025390625q-0.54736328125,0-0.9091796875-0.28759765625l0,0.0185546875q-0.56591796875-0.52880859375-0.8349609375-1.28955078125t-0.3896484375-1.58642578125t-0.218017578125-1.64208984375t-0.329345703125-1.484375q-0.037109375-0.07421875-0.0927734375-0.218017578125t-0.1298828125-0.28759765625t-0.125244140625-0.273681640625t-0.051025390625-0.2041015625z M158.84037597656,28.970703125q0-0.26904296875,0.153076171875-0.3525390625t0.385009765625-0.08349609375q0.38037109375,0,0.579833984375,0.143798828125t0.199462890625,0.505615234375q0,0.43603515625,0.06494140625,1.090087890625t0.190185546875,1.27099609375t0.296875,1.062255859375t0.357177734375,0.4453125q0.34326171875,0,0.607666015625-0.52880859375t0.4638671875-1.298828125t0.34326171875-1.656005859375t0.199462890625-1.581787109375q0.037109375-0.38037109375,0.180908203125-0.552001953125t0.524169921875-0.171630859375q0.43603515625,0,0.635498046875,0.36181640625t0.255126953125,0.890625t0.04638671875,1.108642578125t0.00927734375,0.997314453125l0.26904296875,5.68701171875l0.037109375,0.9462890625q0.0185546875,0.1298828125,0.02783203125,0.245849609375t0.00927734375,0.245849609375q0,0.52880859375-0.227294921875,0.681884765625t-0.737548828125,0.153076171875q-0.111328125,0-0.282958984375-0.0185546875t-0.333984375-0.07421875t-0.2783203125-0.153076171875t-0.115966796875-0.245849609375l0.037109375-0.0927734375q0.0556640625-0.6494140625,0.04638671875-1.368408203125t-0.04638671875-1.461181640625t-0.08349609375-1.484375t-0.04638671875-1.4287109375q-0.1298828125,0.28759765625-0.301513671875,0.59375t-0.39892578125,0.552001953125t-0.514892578125,0.408203125t-0.6494140625,0.162353515625q-0.52880859375,0-0.8720703125-0.2783203125t-0.533447265625-0.7236328125t-0.273681640625-0.997314453125t-0.111328125-1.10400390625t-0.037109375-1.052978515625t-0.07421875-0.84423828125z M160.32475097656,24.0166015625q0-0.111328125,0.153076171875-0.32470703125t0.3525390625-0.412841796875l0.36181640625-0.36181640625t0.199462890625-0.180908203125q0.51025390625-0.45458984375,1.08544921875-0.45458984375q0.21337890625,0,0.459228515625,0.088134765625t0.245849609375,0.236572265625q0,0.0927734375-0.078857421875,0.143798828125t-0.134521484375,0.088134765625q-0.111328125,0-0.245849609375,0.1298828125t-0.296875,0.329345703125t-0.3525390625,0.43603515625t-0.394287109375,0.449951171875q-0.1298828125,0.1484375-0.37109375,0.1669921875t-0.333984375,0.0185546875q-0.1669921875,0-0.408203125-0.07421875t-0.2412109375-0.2783203125z M166.57461914063,30.85400390625q0-0.66796875,0.171630859375-1.340576171875t0.533447265625-1.2060546875t0.923095703125-0.867431640625t1.322021484375-0.333984375q0.32470703125,0,0.71435546875,0.078857421875t0.718994140625,0.25048828125t0.556640625,0.4453125t0.227294921875,0.672607421875q0,0.25048828125-0.1298828125,0.333984375t-0.34326171875,0.08349609375l-0.06494140625-0.0927734375t-0.180908203125-0.236572265625t-0.245849609375-0.30615234375t-0.25048828125-0.273681640625q-0.38037109375-0.38037109375-0.71435546875-0.408203125l-0.07421875,0q-0.2783203125,0-0.51953125,0.1669921875q-0.26904296875,0.2041015625-0.477783203125,0.5751953125t-0.347900390625,0.78857421875t-0.218017578125,0.84423828125t-0.078857421875,0.705078125q0,0.38037109375,0.088134765625,0.867431640625t0.296875,0.923095703125t0.52880859375,0.73291015625t0.821044921875,0.296875q0.45458984375,0,0.82568359375-0.22265625t0.709716796875-0.496337890625t0.663330078125-0.49169921875t0.66796875-0.218017578125q0.1484375,0,0.301513671875,0.037109375t0.153076171875,0.19482421875l0,0.0556640625q-0.1669921875,0.43603515625-0.56591796875,0.77001953125t-0.895263671875,0.579833984375t-1.02978515625,0.366455078125t-0.950927734375,0.12060546875q-0.779296875,0-1.368408203125-0.255126953125t-0.978759765625-0.700439453125t-0.589111328125-1.071533203125t-0.199462890625-1.368408203125z M174.67067871094,32.05078125l0-0.8720703125q0-0.47314453125,0.023193359375-1.340576171875t0.060302734375-1.90185546875t0.10205078125-2.156982421875t0.1484375-2.119873046875t0.199462890625-1.785888671875t0.264404296875-1.1689453125q0.0927734375-0.21337890625,0.30615234375-0.26904296875t0.41748046875-0.0556640625q0.32470703125,0,0.570556640625,0.143798828125t0.245849609375,0.524169921875l-0.1669921875,0.185546875q-0.32470703125,2.14306640625-0.41748046875,4.3046875t-0.1298828125,4.3232421875q0.23193359375-0.36181640625,0.524169921875-0.709716796875t0.6494140625-0.616943359375t0.77001953125-0.431396484375t0.904541015625-0.162353515625q0.630859375,0,1.043701171875,0.38037109375t0.681884765625,0.988037109375t0.39892578125,1.359130859375t0.199462890625,1.5029296875t0.097412109375,1.424072265625t0.08349609375,1.117919921875q-0.17626953125,0.2412109375-0.51953125,0.2412109375l-0.02783203125,0q-0.1484375,0-0.32470703125-0.037109375t-0.23193359375-0.185546875l0.0185546875,0.0185546875q-0.1298828125-0.28759765625-0.17626953125-0.830322265625t-0.07421875-1.19677734375t-0.097412109375-1.340576171875t-0.208740234375-1.2431640625t-0.408203125-0.91845703125t-0.7236328125-0.38037109375l-0.0556640625,0q-0.54736328125,0-0.91845703125,0.333984375q-0.3896484375,0.3525390625-0.630859375,0.927734375t-0.37109375,1.2802734375t-0.199462890625,1.359130859375t-0.106689453125,1.1875t-0.0927734375,0.783935546875q-0.0556640625,0.21337890625-0.329345703125,0.282958984375t-0.468505859375,0.069580078125q-0.45458984375,0-0.7421875-0.259765625q-0.21337890625-0.51025390625-0.25048828125-1.27099609375t-0.037109375-1.484375z M187.16113769531,32.7373046875q0-0.32470703125,0.22265625-0.412841796875t0.482421875-0.088134765625q0.45458984375,0,0.77001953125,0.408203125t0.598388671875,0.895263671875t0.561279296875,0.895263671875t0.65869140625,0.408203125q0.28759765625,0,0.524169921875-0.143798828125t0.408203125-0.36181640625t0.264404296875-0.49169921875t0.0927734375-0.542724609375q0-0.705078125-0.282958984375-1.45654296875t-0.7236328125-1.54931640625t-0.932373046875-1.6328125t-0.927734375-1.69775390625t-0.7236328125-1.758056640625t-0.28759765625-1.804443359375q0-1.36376953125,0.81640625-2.115234375t2.15234375-0.75146484375q0.45458984375,0,0.91845703125,0.1298828125t0.853515625,0.3896484375t0.635498046875,0.64013671875t0.245849609375,0.890625q0,0.1669921875-0.245849609375,0.218017578125t-0.357177734375,0.051025390625q-0.1669921875,0-0.36181640625-0.041748046875t-0.25048828125-0.227294921875t-0.15771484375-0.4267578125t-0.255126953125-0.449951171875t-0.36181640625-0.36181640625t-0.459228515625-0.153076171875q-0.41748046875,0-0.709716796875,0.171630859375t-0.47314453125,0.459228515625t-0.26904296875,0.644775390625t-0.088134765625,0.737548828125q0,0.890625,0.30615234375,1.795166015625t0.7607421875,1.7998046875t0.988037109375,1.767333984375t0.988037109375,1.69775390625t0.7607421875,1.6142578125t0.30615234375,1.49365234375q0,0.630859375-0.296875,1.06689453125t-0.75146484375,0.709716796875t-1.006591796875,0.39892578125t-1.080810546875,0.125244140625q-0.56591796875,0-1.15966796875-0.227294921875t-1.06689453125-0.626220703125t-0.779296875-0.932373046875t-0.30615234375-1.155029296875z M195.12731445312,25.1484375q0-0.1298828125,0.2783203125-0.22265625t0.630859375-0.153076171875t0.681884765625-0.088134765625t0.449951171875-0.04638671875q0-0.25048828125,0.0185546875-0.505615234375t0.10205078125-0.45458984375t0.264404296875-0.320068359375t0.505615234375-0.12060546875q0.26904296875,0,0.408203125,0.06494140625t0.296875,0.26904296875q0.037109375,0.111328125,0.037109375,0.21337890625l0,0.310791015625t-0.0185546875,0.320068359375q0.34326171875-0.037109375,0.681884765625-0.088134765625t0.681884765625-0.051025390625q0.25048828125,0,0.34326171875,0.00927734375t0.185546875,0.22265625q0.07421875,0.21337890625-0.180908203125,0.32470703125t-0.6123046875,0.1669921875t-0.709716796875,0.08349609375t-0.4267578125,0.02783203125q-0.111328125,1.595703125-0.227294921875,3.16357421875t-0.115966796875,3.18212890625q0,0.7236328125,0.04638671875,1.49365234375t0.259765625,1.45654296875q0.0556640625,0.21337890625,0.185546875,0.39892578125t0.1298828125,0.39892578125q0,0.1298828125-0.10205078125,0.2041015625t-0.245849609375,0.125244140625t-0.28759765625,0.060302734375t-0.236572265625,0.00927734375q-0.58447265625,0-0.890625-0.43603515625t-0.440673828125-1.043701171875t-0.143798828125-1.247802734375t-0.00927734375-1.0390625q0-0.81640625,0.032470703125-1.669921875t0.078857421875-1.6884765625t0.1298828125-1.6328125t0.19482421875-1.484375q-0.32470703125,0.037109375-0.635498046875,0.08349609375t-0.635498046875,0.04638671875q-0.07421875,0-0.199462890625-0.00927734375t-0.236572265625-0.04638671875t-0.190185546875-0.10205078125t-0.078857421875-0.185546875z M202.22142089844,28.44189453125q0-0.38037109375,0.134521484375-0.64013671875t0.570556640625-0.259765625q0.1669921875,0,0.41748046875,0.051025390625t0.28759765625,0.255126953125q0.0927734375,0.54736328125,0.10205078125,1.1875t0.06494140625,1.2060546875q0.21337890625-0.41748046875,0.54736328125-0.89990234375t0.7607421875-0.890625t0.927734375-0.67724609375t1.0205078125-0.26904296875q0.037109375,0,0.13916015625,0.02783203125t0.190185546875,0.078857421875t0.106689453125,0.115966796875t-0.10205078125,0.12060546875q-0.037109375,0.111328125-0.15771484375,0.134521484375t-0.21337890625,0.023193359375q-0.0556640625,0-0.17626953125-0.04638671875q-0.6865234375,0.36181640625-1.1689453125,0.9833984375t-0.78857421875,1.377685546875t-0.4453125,1.595703125t-0.13916015625,1.637451171875q0,0.39892578125-0.180908203125,0.482421875t-0.579833984375,0.08349609375q-0.21337890625,0-0.449951171875-0.04638671875t-0.329345703125-0.296875q-0.1669921875-0.52880859375-0.273681640625-1.21533203125t-0.162353515625-1.414794921875t-0.078857421875-1.433349609375t-0.023193359375-1.27099609375z M208.81455078125,31.03955078125q0-0.630859375,0.171630859375-1.21533203125t0.514892578125-1.043701171875t0.858154296875-0.73291015625t1.192138671875-0.273681640625q0.41748046875,0,0.923095703125,0.125244140625t0.950927734375,0.37109375t0.7421875,0.626220703125t0.296875,0.8720703125q0,0.23193359375-0.078857421875,0.3525390625t-0.320068359375,0.12060546875l-0.10205078125-0.0185546875q0.26904296875,0.7236328125,0.4638671875,1.484375t0.38037109375,1.521484375q0.07421875,0.1484375,0.111328125,0.264404296875t0.037109375,0.227294921875q0,0.1484375-0.08349609375,0.245849609375t-0.218017578125,0.143798828125t-0.2783203125,0.06494140625t-0.255126953125,0.0185546875q-0.39892578125,0-0.598388671875-0.13916015625t-0.28759765625-0.38037109375t-0.106689453125-0.542724609375t-0.07421875-0.607666015625q-0.111328125,0.36181640625-0.292236328125,0.705078125t-0.4267578125,0.616943359375t-0.579833984375,0.43603515625t-0.75146484375,0.162353515625q-0.6123046875,0-1.02978515625-0.3525390625t-0.672607421875-0.867431640625t-0.37109375-1.099365234375t-0.115966796875-1.08544921875z M210.13193359375,30.90966796875q0,0.34326171875,0.04638671875,0.7236328125t0.153076171875,0.75146484375t0.273681640625,0.700439453125t0.41748046875,0.579833984375q0.45458984375-0.49169921875,0.672607421875-1.19677734375t0.3896484375-1.359130859375t0.3896484375-1.12255859375t0.672607421875-0.468505859375q0.28759765625,0,0.482421875,0.10205078125q-0.0927734375-0.23193359375-0.30615234375-0.449951171875t-0.477783203125-0.39892578125t-0.54736328125-0.296875t-0.533447265625-0.115966796875q-0.07421875,0-0.171630859375,0.023193359375t-0.153076171875,0.004638671875q-0.38037109375,0.111328125-0.626220703125,0.385009765625t-0.39892578125,0.644775390625t-0.218017578125,0.7607421875t-0.06494140625,0.73291015625z M210.44736328125,24.0166015625q0-0.111328125,0.153076171875-0.32470703125t0.3525390625-0.412841796875l0.36181640625-0.36181640625t0.199462890625-0.180908203125q0.51025390625-0.45458984375,1.08544921875-0.45458984375q0.21337890625,0,0.459228515625,0.088134765625t0.245849609375,0.236572265625q0,0.0927734375-0.078857421875,0.143798828125t-0.134521484375,0.088134765625q-0.111328125,0-0.245849609375,0.1298828125t-0.296875,0.329345703125t-0.3525390625,0.43603515625t-0.394287109375,0.449951171875q-0.1298828125,0.1484375-0.37109375,0.1669921875t-0.333984375,0.0185546875q-0.1669921875,0-0.408203125-0.07421875t-0.2412109375-0.2783203125z M216.86422363281,31.0859375l0-0.26904296875q0-0.333984375,0.0185546875-0.630859375q0.0185546875-0.41748046875,0.0185546875-0.6865234375q0-0.1484375,0.0185546875-0.338623046875t0.0927734375-0.301513671875q0.0927734375-0.0927734375,0.218017578125-0.190185546875t0.273681640625-0.097412109375q0.47314453125,0,0.7421875,0.106689453125t0.28759765625,0.440673828125l0.037109375,0.28759765625q0.1669921875-0.39892578125,0.4453125-0.988037109375t0.644775390625-1.12255859375t0.82568359375-0.9091796875t0.969482421875-0.375732421875q0.47314453125,0,0.779296875,0.4453125t0.487060546875,1.136474609375t0.255126953125,1.5400390625t0.10205078125,1.665283203125t0.037109375,1.489013671875t0.06494140625,1.015869140625q0.037109375,0.28759765625,0.125244140625,0.607666015625t0.088134765625,0.589111328125q0,0.07421875-0.106689453125,0.143798828125t-0.227294921875,0.115966796875t-0.245849609375,0.07421875t-0.180908203125,0.02783203125q-0.36181640625,0-0.514892578125-0.542724609375t-0.190185546875-1.359130859375t-0.037109375-1.767333984375t-0.06494140625-1.767333984375t-0.264404296875-1.359130859375t-0.635498046875-0.561279296875q-0.39892578125,0-0.82568359375,0.514892578125t-0.73291015625,1.368408203125q-0.296875,0.853515625-0.408203125,1.93896484375q-0.037109375,0.34326171875-0.037109375,0.6865234375q0,0.75146484375,0.15771484375,1.5029296875q0.0185546875,0.1298828125-0.106689453125,0.19482421875t-0.310791015625,0.10205078125t-0.375732421875,0.04638671875t-0.292236328125,0.00927734375q-0.36181640625,0-0.579833984375-0.255126953125t-0.338623046875-0.654052734375t-0.162353515625-0.895263671875t-0.051025390625-0.978759765625z M225.29426757812,31.419921875q0-0.6494140625,0.143798828125-1.53076171875t0.487060546875-1.669921875t0.904541015625-1.340576171875t1.414794921875-0.552001953125q0.7978515625,0,1.19677734375,0.459228515625t0.39892578125,1.238525390625q0,0.51025390625-0.190185546875,1.117919921875t-0.542724609375,1.150390625t-0.8349609375,0.904541015625t-1.076171875,0.36181640625l-0.2412109375-0.0185546875q0,0.25048828125,0.07421875,0.672607421875t0.218017578125,0.839599609375t0.37109375,0.73291015625t0.552001953125,0.3154296875q0.47314453125,0,0.9091796875-0.38037109375t0.82568359375-0.84423828125t0.7236328125-0.84423828125t0.6123046875-0.38037109375q0.1484375,0,0.30615234375,0.04638671875t0.17626953125,0.259765625q0,0.1298828125-0.069580078125,0.21337890625t-0.125244140625,0.185546875q-0.28759765625,0.49169921875-0.626220703125,0.93701171875t-0.765380859375,0.80712890625t-0.932373046875,0.570556640625t-1.117919921875,0.208740234375q-0.7978515625,0-1.32666015625-0.282958984375t-0.853515625-0.7607421875t-0.468505859375-1.10400390625t-0.143798828125-1.312744140625z M226.95491210937,30.71484375l0.259765625,0.23193359375q0.185546875,0.1669921875,0.37109375,0.07421875t0.333984375-0.338623046875t0.273681640625-0.607666015625t0.22265625-0.7421875t0.143798828125-0.7421875t0.04638671875-0.60302734375l0-0.3154296875t-0.02783203125-0.333984375t-0.097412109375-0.264404296875t-0.218017578125-0.134521484375q-0.04638671875-0.00927734375-0.08349609375-0.00927734375q-0.3154296875,0-0.5380859375,0.39892578125q-0.2412109375,0.4453125-0.3896484375,1.080810546875t-0.21337890625,1.303466796875t-0.08349609375,1.001953125z M233.04706542968,34.80615234375l0.19482421875-0.23193359375q-0.037109375-1.55859375-0.08349609375-3.10791015625t-0.04638671875-3.080078125q0-1.90185546875,0.227294921875-3.678466796875t0.449951171875-3.641357421875q0.0185546875-0.111328125,0.106689453125-0.180908203125t0.218017578125-0.115966796875t0.264404296875-0.06494140625t0.245849609375-0.0185546875q0.1484375,0,0.37109375,0.0556640625t0.4453125,0.32470703125q0,0.0927734375,0.013916015625,0.162353515625t0.013916015625,0.162353515625q0,0.705078125-0.190185546875,1.51220703125t-0.255126953125,1.54931640625q-0.07421875,0.9091796875-0.10205078125,1.7998046875t-0.02783203125,1.80908203125l0.0185546875,0.81640625q0.185546875-0.23193359375,0.52880859375-0.59375t0.7421875-0.700439453125t0.7978515625-0.579833984375t0.7236328125-0.2412109375q0.49169921875,0,0.681884765625,0.2783203125t0.190185546875,0.73291015625q0,0.41748046875-0.180908203125,0.8720703125t-0.47314453125,0.885986328125t-0.663330078125,0.774658203125t-0.73291015625,0.51025390625q0.49169921875,0.6123046875,1.006591796875,1.1689453125t1.127197265625,1.04833984375l0,0.21337890625q-0.0185546875,0.0927734375-0.115966796875,0.13916015625t-0.21337890625,0.07421875t-0.227294921875,0.041748046875t-0.185546875,0.013916015625q-0.45458984375,0-0.876708984375-0.26904296875t-0.78857421875-0.65869140625t-0.691162109375-0.82568359375t-0.59375-0.7607421875q0.0556640625,1.06689453125,0.125244140625,2.129150390625t0.069580078125,2.129150390625q0,0.1298828125-0.115966796875,0.218017578125t-0.26904296875,0.134521484375t-0.310791015625,0.06494140625t-0.259765625,0.0185546875q-0.54736328125,0-0.774658203125-0.199462890625t-0.385009765625-0.691162109375z M234.94892089843,30.4365234375q0.23193359375,0,0.552001953125-0.199462890625t0.663330078125-0.496337890625t0.64013671875-0.626220703125t0.477783203125-0.626220703125t0.180908203125-0.477783203125t-0.25048828125-0.162353515625q-0.0927734375,0-0.38037109375,0.26904296875t-0.64013671875,0.65869140625t-0.705078125,0.84423828125t-0.5380859375,0.81640625z"/></svg>
